<svg id="visual" viewBox="0 0 900 600" width="900" height="600" xmlns="http://www.w3.org/2000/svg" xmlns:xlink="http://www.w3.org/1999/xlink" version="1.1"><rect x="0" y="0" width="900" height="600" fill="#f2f6f1"></rect><path d="M65 0L56 100L63 200L58 300L60 400L70 500L63 600L0 600L0 500L0 400L0 300L0 200L0 100L0 0Z" fill="#cbe8b9"></path><path d="M51 0L51 100L51 200L49 300L58 400L59 500L48 600L0 600L0 500L0 400L0 300L0 200L0 100L0 0Z" fill="#c5ddae"></path><path d="M35 0L35 100L44 200L45 300L40 400L38 500L38 600L0 600L0 500L0 400L0 300L0 200L0 100L0 0Z" fill="#bed3a4"></path><path d="M32 0L24 100L33 200L24 300L32 400L33 500L23 600L0 600L0 500L0 400L0 300L0 200L0 100L0 0Z" fill="#b7c899"></path><path d="M17 0L14 100L19 200L13 300L15 400L20 500L17 600L0 600L0 500L0 400L0 300L0 200L0 100L0 0Z" fill="#b0be8f"></path></svg>